<svg width="40" viewBox="0 0 341 375" fill="none" xmlns="http://www.w3.org/2000/svg">
<g clip-path="url(#clip0_111_96)">
<path d="M333.651 280.911L179.057 370.161C177.371 371.134 175.466 371.66 173.521 371.692C171.575 371.724 169.654 371.26 167.937 370.343L10.5037 286.204C8.69923 285.24 7.18509 283.81 6.1181 282.063C5.05112 280.316 4.4701 278.316 4.43525 276.268L1.60793 103.655C1.57571 101.608 2.09089 99.5891 3.10009 97.8081C4.10929 96.0272 5.5758 94.5488 7.34769 93.5262L161.981 4.27488C163.667 3.30272 165.573 2.77593 167.518 2.74406C169.463 2.7122 171.385 3.1763 173.102 4.09273L330.495 88.2332C332.3 89.1959 333.815 90.6251 334.882 92.3723C335.95 94.1196 336.53 96.121 336.563 98.1687L339.39 270.782C339.424 272.829 338.91 274.849 337.9 276.63C336.891 278.411 335.424 279.889 333.651 280.911Z" fill="#3DC0CB"/>
<path d="M333.651 280.911L179.057 370.161C177.371 371.133 175.466 371.66 173.521 371.692C171.575 371.724 169.654 371.26 167.937 370.343L10.5037 286.204C8.69923 285.24 7.18509 283.81 6.1181 282.063C5.05112 280.316 4.4701 278.315 4.43525 276.268L1.60793 103.655C1.57571 101.608 2.09089 99.589 3.10009 97.8081C4.10929 96.0271 5.5758 94.5487 7.34768 93.5261L161.981 4.27484C163.667 3.30267 165.573 2.77588 167.518 2.74402C169.463 2.71215 171.385 3.17626 173.102 4.09269L330.495 88.2331C332.3 89.1958 333.815 90.6251 334.882 92.3723C335.95 94.1195 336.53 96.121 336.563 98.1687L339.39 270.782C339.424 272.829 338.91 274.849 337.9 276.63C336.891 278.411 335.424 279.889 333.651 280.911Z" fill="#3DC0CB"/>
<path d="M160.883 188.113L159.361 95.2317L170.353 95.0516C196.907 94.6167 219.59 103.91 238.401 122.932C255.918 140.734 264.88 161.996 265.285 186.719C265.515 211.65 257.174 233.506 240.261 252.287C222.241 271.702 199.965 281.626 173.432 282.061C147.041 282.315 124.364 273.021 105.4 254.18C87.8465 236.18 78.8656 214.712 78.4572 189.779C78.33 175.378 81.1841 161.107 86.8395 147.866C95.3215 128.258 110.481 112.301 129.618 102.838C129.768 112.015 129.945 121.191 130.15 130.367C124.435 133.946 119.344 138.437 115.077 143.661C109.089 151.095 104.838 159.777 102.639 169.07C100.964 175.718 100.224 182.567 100.44 189.419C100.918 207.073 107.306 222.357 119.603 235.271C133.946 250.208 151.742 257.503 172.992 257.155C191.324 256.855 207.248 250.654 220.765 238.554C236.113 224.593 243.617 207.43 243.278 187.063C242.797 168.572 235.755 152.37 222.151 138.457C209.485 125.782 196.011 119.561 181.728 119.795L182.841 187.737L160.883 188.113Z" fill="white"/>
</g>
<defs>
<clipPath id="clip0_111_96">
<rect width="335" height="369" fill="white" transform="translate(0 5.4864) rotate(-0.938394)"/>
</clipPath>
</defs>
</svg>
